<svg width="24" height="25" viewBox="0 0 24 25" fill="none" xmlns="http://www.w3.org/2000/svg">
<path d="M22.0102 16.0633L22.0109 16.0659L22.0109 16.0659C22.1775 16.6909 21.8186 17.3695 21.185 17.492L15.2478 19.0567C15.3216 20.2232 14.569 21.3123 13.4004 21.6164C12.2322 21.9433 11.0181 21.3702 10.5099 20.3297L9.53051 20.5967L9.52946 20.597C9.32195 20.6488 9.10627 20.5453 9.05193 20.3293C9.05188 20.3292 9.05184 20.329 9.0518 20.3288L5.05583 5.61525L3.15679 6.0901L3.14467 6.04159L3.15679 6.0901C2.66761 6.21241 2.13082 5.91954 1.98428 5.40645M22.0102 16.0633L2.03235 5.39272M22.0102 16.0633L22.0102 16.0631L21.5701 14.4419C21.57 14.4417 21.57 14.4416 21.5699 14.4414C21.5156 14.2254 21.2999 14.122 21.0924 14.1737L21.0919 14.1739L19.4481 14.6017L17.6072 7.76779C17.6072 7.76765 17.6071 7.76751 17.6071 7.76737C17.5528 7.55131 17.3371 7.44781 17.1296 7.4996L17.1287 7.49982L13.5385 8.46024L12.5554 4.82467C12.5553 4.82451 12.5553 4.82435 12.5553 4.8242C12.5009 4.60817 12.2852 4.50469 12.0777 4.55648L12.0771 4.55663L7.44408 5.77223M22.0102 16.0633L7.44408 5.77223M1.98428 5.40645L2.03235 5.39272M1.98428 5.40645C1.98428 5.40645 1.98428 5.40646 1.98428 5.40646L2.03235 5.39272M1.98428 5.40645C1.83695 4.89075 2.15686 4.37818 2.66749 4.23233L2.66916 4.23186L2.66917 4.23189L6.39939 3.30521M2.03235 5.39272C1.89335 4.90615 2.19449 4.41943 2.68123 4.28041L6.41224 3.35353M6.39939 3.30521C6.3991 3.30529 6.39882 3.30537 6.39853 3.30545L6.41224 3.35353M6.39939 3.30521L6.40019 3.30501L6.41224 3.35353M6.39939 3.30521C6.58712 3.25219 6.80093 3.35933 6.85458 3.57279L6.85448 3.57239L6.80618 3.58534M6.41224 3.35353C6.57437 3.3073 6.75979 3.39993 6.80618 3.58534M6.80618 3.58534L6.85468 3.5732M6.80618 3.58534L7.40866 5.83322L6.85468 3.5732M6.85468 3.5732L7.44408 5.77223M6.85468 3.5732L7.44408 5.77223M5.69548 5.0786L5.69555 5.07858L5.69466 5.0759C5.64281 4.92054 5.48733 4.7868 5.3228 4.7868H5.25329V4.78532L5.2414 4.78824L2.97039 5.34446L2.97038 5.34442L2.96856 5.34494C2.90035 5.36441 2.84749 5.35276 2.80878 5.32731C2.76892 5.30111 2.73981 5.25738 2.72648 5.20652C2.69967 5.10414 2.73901 4.99138 2.85679 4.95444L6.21445 4.10935L9.86283 17.5483C9.86287 17.5485 9.86291 17.5486 9.86296 17.5488C9.91729 17.7648 10.133 17.8683 10.3405 17.8165L10.3409 17.8164L10.8072 17.6954C10.3552 18.2407 10.1772 18.9623 10.2721 19.6303L9.69195 19.7704L5.69548 5.0786ZM11.0948 19.7924L11.0947 19.7924C10.8018 18.8461 11.3422 17.8784 12.2879 17.6307L12.2884 17.6306C13.2798 17.3603 14.2479 18.0141 14.4277 18.9132L14.4277 18.9132L14.4279 18.9141C14.63 19.8353 14.0467 20.6691 13.1886 20.9177C12.287 21.1655 11.3646 20.6695 11.0948 19.7924ZM20.9754 16.7926L15.0636 18.3567C14.8149 17.7186 14.2794 17.2014 13.6324 16.9618C14.2561 16.7964 14.9238 16.6196 15.6118 16.4374C17.3835 15.9681 19.2904 15.4631 20.9301 15.0249L21.2647 16.2743L21.2648 16.2745C21.3272 16.5037 21.203 16.73 20.9764 16.7924C20.9762 16.7924 20.976 16.7925 20.9758 16.7925L20.9754 16.7926ZM18.7255 14.8125L10.5027 16.9884L8.74449 10.5267L16.9673 8.35078L18.7255 14.8125ZM7.65536 6.5176L11.9153 5.3846L12.7931 8.64822L8.53301 9.78122L7.65536 6.5176Z" fill="#062D81" stroke="#062D81" stroke-width="0.1"/>
</svg>
