<svg width="24" height="25" viewBox="0 0 24 25" fill="none" xmlns="http://www.w3.org/2000/svg">
<mask id="path-1-outside-1_131_300" maskUnits="userSpaceOnUse" x="3" y="1.5" width="18" height="22" fill="black">
<rect fill="white" x="3" y="1.5" width="18" height="22"/>
<path d="M12.5651 22.1454H5.09465C4.8466 22.1454 4.64516 21.9398 4.64516 21.687V3.61327C4.64516 3.36058 4.84677 3.15484 5.09465 3.15484H12.5651C12.7432 3.15484 12.8877 3.00813 12.8877 2.82742C12.8877 2.64672 12.7432 2.5 12.5651 2.5H5.09465C4.49106 2.5 4 2.99955 4 3.61328V21.687C4 22.3007 4.49106 22.8003 5.09465 22.8003H12.5651C12.7432 22.8003 12.8877 22.6535 12.8877 22.4728C12.8877 22.2921 12.7433 22.1454 12.5651 22.1454V22.1454ZM20.1499 12.4186L15.7247 7.92719C15.5987 7.79929 15.3946 7.79929 15.2684 7.92719C15.1422 8.05509 15.1424 8.26247 15.2684 8.39036L19.1433 12.3227H8.61245C8.43442 12.3227 8.28987 12.4694 8.28987 12.6501C8.28987 12.8308 8.43442 12.9775 8.61245 12.9775H19.1433L15.2684 16.9103C15.1424 17.0382 15.1424 17.2454 15.2684 17.3734C15.3314 17.4374 15.4136 17.4694 15.4964 17.4694C15.5792 17.4694 15.6617 17.4374 15.7245 17.3734L20.1497 12.882C20.21 12.8208 20.2442 12.7375 20.2442 12.6505C20.2444 12.5633 20.2105 12.4802 20.1499 12.4186V12.4186Z"/>
</mask>
<path d="M12.5651 22.1454H5.09465C4.8466 22.1454 4.64516 21.9398 4.64516 21.687V3.61327C4.64516 3.36058 4.84677 3.15484 5.09465 3.15484H12.5651C12.7432 3.15484 12.8877 3.00813 12.8877 2.82742C12.8877 2.64672 12.7432 2.5 12.5651 2.5H5.09465C4.49106 2.5 4 2.99955 4 3.61328V21.687C4 22.3007 4.49106 22.8003 5.09465 22.8003H12.5651C12.7432 22.8003 12.8877 22.6535 12.8877 22.4728C12.8877 22.2921 12.7433 22.1454 12.5651 22.1454V22.1454ZM20.1499 12.4186L15.7247 7.92719C15.5987 7.79929 15.3946 7.79929 15.2684 7.92719C15.1422 8.05509 15.1424 8.26247 15.2684 8.39036L19.1433 12.3227H8.61245C8.43442 12.3227 8.28987 12.4694 8.28987 12.6501C8.28987 12.8308 8.43442 12.9775 8.61245 12.9775H19.1433L15.2684 16.9103C15.1424 17.0382 15.1424 17.2454 15.2684 17.3734C15.3314 17.4374 15.4136 17.4694 15.4964 17.4694C15.5792 17.4694 15.6617 17.4374 15.7245 17.3734L20.1497 12.882C20.21 12.8208 20.2442 12.7375 20.2442 12.6505C20.2444 12.5633 20.2105 12.4802 20.1499 12.4186V12.4186Z" fill="#5D6679"/>
<path d="M12.5651 22.1454H12.6651V22.0454H12.5651V22.1454ZM12.5651 22.1454H12.4651V22.2454H12.5651V22.1454ZM20.1499 12.4186H20.2499V12.3776L20.2211 12.3484L20.1499 12.4186ZM15.7247 7.92719L15.6535 7.99737L15.6535 7.99737L15.7247 7.92719ZM15.2684 7.92719L15.3396 7.99742L15.3396 7.99742L15.2684 7.92719ZM15.2684 8.39036L15.1971 8.46055L15.1971 8.46055L15.2684 8.39036ZM19.1433 12.3227V12.4227H19.3822L19.2145 12.2525L19.1433 12.3227ZM19.1433 12.9775L19.2145 13.0477L19.3822 12.8775H19.1433V12.9775ZM15.2684 16.9103L15.1971 16.8401L15.1971 16.8401L15.2684 16.9103ZM15.2684 17.3734L15.1971 17.4436L15.1971 17.4436L15.2684 17.3734ZM15.7245 17.3734L15.6533 17.3032L15.6532 17.3034L15.7245 17.3734ZM20.1497 12.882L20.2209 12.9522L20.2209 12.9522L20.1497 12.882ZM20.2442 12.6505L20.1442 12.6503V12.6505H20.2442ZM20.1499 12.4186H20.0499V12.4596L20.0786 12.4888L20.1499 12.4186ZM12.5651 22.0454H5.09465V22.2454H12.5651V22.0454ZM5.09465 22.0454C4.90369 22.0454 4.74516 21.8865 4.74516 21.687H4.54516C4.54516 21.9932 4.7895 22.2454 5.09465 22.2454V22.0454ZM4.74516 21.687V3.61327H4.54516V21.687H4.74516ZM4.74516 3.61327C4.74516 3.41393 4.90387 3.25484 5.09465 3.25484V3.05484C4.78968 3.05484 4.54516 3.30724 4.54516 3.61327H4.74516ZM5.09465 3.25484H12.5651V3.05484H5.09465V3.25484ZM12.5651 3.25484C12.7998 3.25484 12.9877 3.06194 12.9877 2.82742H12.7877C12.7877 2.95431 12.6865 3.05484 12.5651 3.05484V3.25484ZM12.9877 2.82742C12.9877 2.5929 12.7998 2.4 12.5651 2.4V2.6C12.6865 2.6 12.7877 2.70054 12.7877 2.82742H12.9877ZM12.5651 2.4H5.09465V2.6H12.5651V2.4ZM5.09465 2.4C4.43424 2.4 3.9 2.94593 3.9 3.61328H4.1C4.1 3.05317 4.54788 2.6 5.09465 2.6V2.4ZM3.9 3.61328V21.687H4.1V3.61328H3.9ZM3.9 21.687C3.9 22.3543 4.43424 22.9003 5.09465 22.9003V22.7003C4.54788 22.7003 4.1 22.2471 4.1 21.687H3.9ZM5.09465 22.9003H12.5651V22.7003H5.09465V22.9003ZM12.5651 22.9003C12.7998 22.9003 12.9877 22.7074 12.9877 22.4728H12.7877C12.7877 22.5997 12.6865 22.7003 12.5651 22.7003V22.9003ZM12.9877 22.4728C12.9877 22.2383 12.8 22.0454 12.5651 22.0454V22.2454C12.6867 22.2454 12.7877 22.3459 12.7877 22.4728H12.9877ZM12.6651 22.1454V22.1454H12.4651V22.1454H12.6651ZM20.2211 12.3484L15.7959 7.857L15.6535 7.99737L20.0786 12.4888L20.2211 12.3484ZM15.7959 7.857C15.6307 7.68932 15.3625 7.68939 15.1972 7.85696L15.3396 7.99742C15.4266 7.90918 15.5666 7.90925 15.6535 7.99737L15.7959 7.857ZM15.1972 7.85695C15.0325 8.02386 15.0328 8.29378 15.1971 8.46055L15.3396 8.32018C15.2519 8.23115 15.2518 8.08632 15.3396 7.99742L15.1972 7.85695ZM15.1971 8.46055L19.0721 12.3929L19.2145 12.2525L15.3396 8.32017L15.1971 8.46055ZM19.1433 12.2227H8.61245V12.4227H19.1433V12.2227ZM8.61245 12.2227C8.37779 12.2227 8.18987 12.4156 8.18987 12.6501H8.38987C8.38987 12.5232 8.49105 12.4227 8.61245 12.4227V12.2227ZM8.18987 12.6501C8.18987 12.8846 8.37779 13.0775 8.61245 13.0775V12.8775C8.49105 12.8775 8.38987 12.777 8.38987 12.6501H8.18987ZM8.61245 13.0775H19.1433V12.8775H8.61245V13.0775ZM19.072 12.9074L15.1971 16.8401L15.3396 16.9804L19.2145 13.0477L19.072 12.9074ZM15.1971 16.8401C15.0327 17.0069 15.0328 17.2766 15.1971 17.4436L15.3397 17.3033C15.2519 17.2141 15.252 17.0694 15.3396 16.9804L15.1971 16.8401ZM15.1971 17.4436C15.2795 17.5272 15.3877 17.5694 15.4964 17.5694V17.3694C15.4396 17.3694 15.3833 17.3476 15.3396 17.3032L15.1971 17.4436ZM15.4964 17.5694C15.6051 17.5694 15.7136 17.5273 15.7958 17.4435L15.6532 17.3034C15.6098 17.3475 15.5534 17.3694 15.4964 17.3694V17.5694ZM15.7957 17.4436L20.2209 12.9522L20.0785 12.8118L15.6533 17.3032L15.7957 17.4436ZM20.2209 12.9522C20.2998 12.8722 20.3442 12.7636 20.3442 12.6505H20.1442C20.1442 12.7113 20.1202 12.7694 20.0785 12.8118L20.2209 12.9522ZM20.3442 12.6507C20.3444 12.5374 20.3004 12.4289 20.2211 12.3485L20.0786 12.4888C20.1207 12.5315 20.1443 12.5893 20.1442 12.6503L20.3442 12.6507ZM20.2499 12.4186V12.4186H20.0499V12.4186H20.2499Z" fill="#5D6679" mask="url(#path-1-outside-1_131_300)"/>
</svg>
