<svg width="24" height="25" viewBox="0 0 24 25" fill="none" xmlns="http://www.w3.org/2000/svg">
<path d="M7.187 21.8776L7.18698 21.8776L7.18863 21.8793C7.21922 21.9098 7.25378 21.9368 7.2959 21.9555C7.33846 21.9744 7.38353 21.9826 7.43226 21.9826H21.753C21.8498 21.9826 21.9382 21.9499 22.0028 21.8854C22.0673 21.821 22.1 21.7325 22.1 21.6356L22.0998 7.31485C22.0998 7.1871 22.0357 7.07088 21.9191 7.02642L15.2813 3.09282C15.2551 3.05776 15.2202 3.03749 15.1847 3.02738C15.1493 3.01729 15.1121 3.01736 15.0901 3.0174L15.0863 3.0174H2.24698C2.15022 3.0174 2.06177 3.05007 1.99725 3.11455C1.93273 3.17904 1.9 3.26751 1.9 3.36438V16.2037C1.9 16.2524 1.90821 16.2974 1.92709 16.34C1.94561 16.3817 1.97221 16.416 2.0025 16.4465C2.00279 16.4468 2.00307 16.447 2.00335 16.4473L7.187 21.8776ZM21.406 21.2886H7.77908V7.6617H12.5173V11.2653C12.5173 11.3621 12.5499 11.4506 12.6144 11.5151C12.6789 11.5796 12.7674 11.6123 12.8643 11.6123H16.0741C16.1709 11.6123 16.2593 11.5797 16.3239 11.5152C16.3884 11.4507 16.4211 11.3622 16.4211 11.2653L16.4209 7.6617H21.406L21.406 21.2886ZM13.2111 10.9184V7.66179H15.7272V10.9184H13.2111ZM11.5402 3.71114H14.9849L20.4748 6.96779H16.4253L11.5402 3.71114ZM12.9685 6.96796L8.08336 3.71129L10.2908 3.71114L15.1759 6.96781L12.9685 6.96796ZM7.54007 6.96796L3.28304 3.71114L6.83396 3.71114L11.7191 6.9678L7.54007 6.96796ZM2.59407 16.0647V4.06023L7.08535 7.48775V20.7688L2.59407 16.0647Z" fill="#5D6679" stroke="#5D6679" stroke-width="0.2"/>
</svg>
