<svg width="24" height="25" viewBox="0 0 24 25" fill="none" xmlns="http://www.w3.org/2000/svg">
<path d="M16.4445 21.3889V13.3039C16.4445 13.0008 16.7022 12.7551 17.0001 12.7551C17.3068 12.7551 17.5556 12.9946 17.5556 13.3039V21.3889H18.675C19.889 21.3889 20.889 20.3918 20.889 19.1749V5.82498C20.889 4.61098 19.8919 3.61099 18.675 3.61099H5.32512C4.11113 3.61099 3.11113 4.60806 3.11113 5.82498V19.1749C3.11113 20.3889 4.1082 21.3889 5.32512 21.3889H6.44454V16.0903C6.44454 15.7776 6.70221 15.5239 7.00007 15.5239C7.30685 15.5239 7.5556 15.7703 7.5556 16.0903V21.3889H9.77784V10.5379C9.77784 10.2333 10.0355 9.98652 10.3334 9.98652C10.6403 9.98652 10.889 10.2242 10.889 10.5379V21.3889H13.1111V6.38611C13.1111 6.08087 13.3689 5.83337 13.6668 5.83337C13.9736 5.83337 14.2223 6.08114 14.2223 6.38611V21.3889H16.4445ZM2 5.82505C2 3.9887 3.5032 2.5 5.32505 2.5H18.675C20.5113 2.5 22 4.0032 22 5.82505V19.175C22 21.0113 20.4968 22.5 18.675 22.5H5.32505C3.4887 22.5 2 20.9968 2 19.175V5.82505Z" fill="#5D6679"/>
</svg>
