<svg width="24" height="25" viewBox="0 0 24 25" fill="none" xmlns="http://www.w3.org/2000/svg">
<path d="M11.9999 2.50018C6.48613 2.50018 2 6.98631 2 12.5001C2 14.9654 2.89843 17.2233 4.38279 18.9684C4.4018 18.9977 4.4236 19.0254 4.44906 19.0508C4.45482 19.0566 4.46127 19.0603 4.46702 19.0657C6.30174 21.1679 8.99734 22.4998 12 22.4998C15.0027 22.4998 17.6982 21.1679 19.533 19.0657C19.5387 19.0604 19.5455 19.0564 19.5509 19.0508C19.5764 19.0254 19.5984 18.9973 19.6172 18.9684C21.1016 17.2231 22 14.9652 22 12.5001C22 6.98631 17.5139 2.50018 12.0001 2.50018H11.9999ZM11.9999 21.5C9.44414 21.5 7.13567 20.4276 5.49595 18.7111L6.18095 18.0261C6.84273 17.3645 7.72232 17 8.65758 17H15.3424C16.2776 17 17.1572 17.3645 17.8188 18.0259L18.5038 18.7109C16.8642 20.4274 14.5557 21.5 11.9998 21.5H11.9999ZM19.1561 17.9492L18.5259 17.319C17.6754 16.4685 16.5449 15.9999 15.3424 15.9999H8.65758C7.455 15.9999 6.32465 16.4685 5.47417 17.319L4.84395 17.9492C3.68829 16.4356 2.99999 14.547 2.99999 12.5001C2.99999 7.53769 7.03719 3.50022 11.9999 3.50022C16.9624 3.50022 20.9999 7.53742 20.9999 12.5001C20.9999 14.5471 20.3116 16.4357 19.1561 17.9492H19.1561ZM11.9999 7.00019C9.79449 7.00019 7.99986 8.7946 7.99986 11.0003C7.99986 13.2057 9.79427 15.0003 11.9999 15.0003C14.2054 15.0003 16 13.2059 16 11.0003C16 8.7946 14.2054 7.00019 11.9999 7.00019ZM11.9999 14.0001C10.3457 14.0001 8.99999 12.6544 8.99999 11.0002C8.99999 9.34598 10.3457 8.00027 11.9999 8.00027C13.6541 8.00027 14.9999 9.34602 14.9999 11.0002C14.9999 12.6544 13.6541 14.0001 11.9999 14.0001Z" fill="#5D6679"/>
</svg>
